<svg xmlns="http://www.w3.org/2000/svg" width="89" height="13" fill="none" viewBox="0 0 89 13"><path fill="#0C0C0C" d="M8.72 10.096 10.48 4h1.456l-2.48 8H8.032L6.16 6.08 4.288 12H2.864L.384 4H1.84l1.76 6.08L5.488 4h1.344l1.888 6.096Zm10.64-4.72V4h1.392v8H19.36v-1.376c-.6827 1.056-1.6907 1.584-3.024 1.584-1.1307 0-2.0853-.4053-2.864-1.216-.7893-.8213-1.184-1.8187-1.184-2.992 0-1.1627.3947-2.1547 1.184-2.976.7893-.8213 1.744-1.232 2.864-1.232 1.3333 0 2.3413.528 3.024 1.584Zm-2.848 5.488c.8107 0 1.488-.272 2.032-.816.544-.5653.816-1.248.816-2.048 0-.8107-.272-1.488-.816-2.032-.544-.5547-1.2213-.832-2.032-.832-.8 0-1.472.2773-2.016.832-.544.544-.816 1.2213-.816 2.032 0 .8.272 1.4827.816 2.048.544.544 1.216.816 2.016.816ZM26.893 4v1.344h-2.128V9.68c0 .3947.0747.6773.224.848.16.16.4.2453.72.256.32 0 .7147-.0107 1.184-.032V12c-1.2267.16-2.1227.0587-2.688-.304-.5547-.3627-.832-1.0347-.832-2.016V5.344h-1.584V4h1.584V2.176l1.392-.416V4h2.128Zm4.6818 8.208c-1.2054 0-2.208-.4-3.008-1.2-.8-.8107-1.2-1.8133-1.2-3.008s.4-2.192 1.2-2.992c.8-.8107 1.8026-1.216 3.008-1.216.7893 0 1.4986.192 2.128.576.6293.3733 1.0986.88 1.408 1.52l-1.168.672c-.2027-.4267-.5174-.768-.944-1.024-.416-.256-.8907-.384-1.424-.384-.8 0-1.472.272-2.016.816-.5334.5547-.8 1.232-.8 2.032 0 .7893.2666 1.4613.8 2.016.544.544 1.216.816 2.016.816.5333 0 1.0133-.1227 1.44-.368.4266-.256.752-.5973.976-1.024l1.184.688c-.352.64-.848 1.1467-1.488 1.52-.64.3733-1.344.56-2.112.56Zm8.6383-8.416c.9387 0 1.6907.2987 2.256.896.5654.5867.848 1.3867.848 2.4V12h-1.392V7.168c0-.64-.176-1.1413-.528-1.504-.352-.3627-.8373-.544-1.456-.544-.7146 0-1.28.224-1.696.672-.416.4373-.624 1.0933-.624 1.968V12h-1.392V.8h1.392v4.352c.5547-.9067 1.4187-1.36 2.592-1.36Zm8.4873 8.416c-1.2054 0-2.208-.4-3.008-1.2-.8-.8107-1.2-1.8133-1.2-3.008s.4-2.192 1.2-2.992c.8-.8107 1.8026-1.216 3.008-1.216.7893 0 1.4986.192 2.128.576.6293.3733 1.0986.88 1.408 1.52l-1.168.672c-.2027-.4267-.5174-.768-.944-1.024-.416-.256-.8907-.384-1.424-.384-.8 0-1.472.272-2.016.816-.5334.5547-.8 1.232-.8 2.032 0 .7893.2666 1.4613.8 2.016.544.544 1.216.816 2.016.816.5333 0 1.0133-.1227 1.44-.368.4266-.256.752-.5973.976-1.024l1.184.688c-.352.64-.848 1.1467-1.488 1.52-.64.3733-1.344.56-2.112.56Zm8.6384-8.416c.9386 0 1.6906.2987 2.256.896.5653.5867.848 1.3867.848 2.4V12h-1.392V7.168c0-.64-.176-1.1413-.528-1.504-.352-.3627-.8374-.544-1.456-.544-.7147 0-1.28.224-1.696.672-.416.4373-.624 1.0933-.624 1.968V12h-1.392V.8h1.392v4.352c.5546-.9067 1.4186-1.36 2.592-1.36ZM68.69 5.376V4h1.392v8H68.69v-1.376c-.6827 1.056-1.6907 1.584-3.024 1.584-1.1307 0-2.0853-.4053-2.864-1.216-.7893-.8213-1.184-1.8187-1.184-2.992 0-1.1627.3947-2.1547 1.184-2.976.7893-.8213 1.744-1.232 2.864-1.232 1.3333 0 2.3413.528 3.024 1.584Zm-2.848 5.488c.8107 0 1.488-.272 2.032-.816.544-.5653.816-1.248.816-2.048 0-.8107-.272-1.488-.816-2.032-.544-.5547-1.2213-.832-2.032-.832-.8 0-1.472.2773-2.016.832-.544.544-.816 1.2213-.816 2.032 0 .8.272 1.4827.816 2.048.544.544 1.216.816 2.016.816ZM73.263 4v1.344c.4587-.992 1.2907-1.488 2.496-1.488v1.456c-.6827-.032-1.2693.1493-1.76.544-.4907.3947-.736 1.0293-.736 1.904V12h-1.392V4h1.392Zm12.178-.208c.9067 0 1.632.2933 2.176.88.5547.5867.832 1.3707.832 2.352V12h-1.392V7.072c0-.608-.16-1.0827-.48-1.424-.3093-.352-.736-.528-1.28-.528-.6187 0-1.104.208-1.456.624-.3413.4053-.512 1.008-.512 1.808V12h-1.392V7.072c0-.608-.1547-1.0827-.464-1.424-.2987-.352-.7093-.528-1.232-.528-.608 0-1.104.2133-1.488.64-.3733.416-.56 1.0133-.56 1.792V12h-1.392V4h1.392v1.072c.544-.8533 1.3387-1.28 2.384-1.28 1.0773 0 1.8613.4533 2.352 1.36.5547-.9067 1.392-1.36 2.512-1.36Z"/></svg>