<svg aria-hidden="true" style="position: absolute; width: 0; height: 0; overflow: hidden;" version="1.1" xmlns="http://www.w3.org/2000/svg" xmlns:xlink="http://www.w3.org/1999/xlink">
<defs>
<symbol id="icon-x" viewBox="0 0 32 32">
<path stroke-linejoin="round" stroke-linecap="round" stroke-miterlimit="4" stroke-width="2.4" d="M24 8l-16 16M8 8l16 16"></path>
</symbol>
<symbol id="icon-menu" viewBox="0 0 68 32">
<path stroke-linejoin="round" stroke-linecap="round" stroke-miterlimit="4" stroke-width="6" d="M4 4.334h60M4 27.666h60"></path>
</symbol>
<symbol id="icon-youtube" viewBox="0 0 32 32">
<path d="M23.848 6.476c-1.295-0.076-3.962-0.152-8-0.152h-0.533c-3.886 0-6.476 0.076-7.771 0.229-1.752 0.152-2.971 0.61-3.657 1.219-0.61 0.533-1.067 1.524-1.219 2.819-0.076 0.838-0.152 2.59-0.152 5.257v0.381c0 2.514 0.076 4.267 0.229 5.105 0.229 1.219 0.61 2.133 1.371 2.667 0.762 0.61 2.057 0.99 3.886 1.143 1.295 0.076 3.962 0.152 8 0.152h0.533c3.886 0 6.476-0.076 7.771-0.229 1.752-0.152 2.971-0.61 3.657-1.219 0.61-0.533 1.067-1.524 1.219-2.819 0.076-0.838 0.152-2.59 0.152-5.257v-0.381c0-2.514-0.076-4.267-0.229-5.105-0.229-1.219-0.61-2.133-1.371-2.667-0.762-0.61-2.057-0.99-3.886-1.143zM20.876 15.848l-8.381 5.029v-10.057l8.381 5.029z"></path>
</symbol>
<symbol id="icon-instagram" viewBox="0 0 32 32">
<path d="M28.111 11.005c-0.015-1.080-0.221-2.107-0.587-3.055l0.020 0.060c-0.649-1.64-1.924-2.913-3.523-3.545l-0.042-0.015c-0.877-0.339-1.891-0.545-2.95-0.567l-0.009-0c-1.301-0.059-1.713-0.075-5.019-0.075s-3.73 0-5.022 0.075c-1.012 0.021-2.011 0.213-2.959 0.567-1.641 0.646-2.916 1.92-3.549 3.517l-0.015 0.042c-0.34 0.875-0.546 1.887-0.567 2.944l-0 0.009c-0.058 1.301-0.076 1.714-0.076 5.013 0 3.302 0 3.724 0.076 5.016 0.020 1.010 0.21 2.008 0.567 2.956 0.65 1.639 1.925 2.911 3.523 3.542l0.042 0.015c0.874 0.352 1.886 0.573 2.944 0.609l0.015 0c1.303 0.056 1.716 0.075 5.022 0.075s3.73 0 5.022-0.076c1.069-0.021 2.083-0.227 3.022-0.586l-0.061 0.021c1.64-0.648 2.915-1.921 3.549-3.517l0.015-0.042c0.339-0.876 0.546-1.889 0.567-2.947l0-0.009c0.058-1.3 0.076-1.713 0.076-5.013-0.003-3.302-0.003-3.721-0.079-5.013zM15.991 22.22c-0.002 0-0.005 0-0.008 0-3.451 0-6.25-2.797-6.252-6.247v-0c0-3.453 2.802-6.249 6.26-6.249 0.001 0 0.003 0 0.005 0 3.452 0 6.25 2.796 6.254 6.247v0c0 3.453-2.804 6.249-6.258 6.249zM22.498 10.949c-0.805 0-1.457-0.652-1.457-1.457s0.652-1.457 1.457-1.457v0c0.805 0 1.457 0.652 1.457 1.457s-0.652 1.457-1.457 1.457v0z"></path>
<path d="M15.992 19.787c2.106 0 3.813-1.707 3.813-3.813s-1.707-3.813-3.813-3.813v0c-2.106 0-3.813 1.707-3.813 3.813s1.707 3.813 3.813 3.813v0z"></path>
</symbol>
<symbol id="icon-facebook" viewBox="0 0 32 32">
<path d="M19.352 5.181h0.914v3.429h-1.143c-0.457 0-0.914 0-1.143 0.229s-0.229 0.457-0.229 0.99v1.219h2.514v2.895h-2.514v12.571h-3.886v-12.648h-2.057v-2.895h2.057v-0.99c0-1.676 0.229-2.895 0.686-3.429 0.686-0.99 2.057-1.448 4.114-1.448 0.229 0.076 0.457 0.076 0.686 0.076z"></path>
</symbol>
</defs>
</svg>
