<svg width="21" height="20" fill="none" xmlns="http://www.w3.org/2000/svg">
  <g opacity=".8" fill="#0C0C0C">
    <path d="M18.448 6.722a5.784 5.784 0 0 0-.372-1.965 4.092 4.092 0 0 0-2.34-2.336 5.879 5.879 0 0 0-1.942-.372C12.94 2.01 12.67 2 10.5 2s-2.448 0-3.296.049c-.664.014-1.32.14-1.942.372a4.09 4.09 0 0 0-2.339 2.336 5.805 5.805 0 0 0-.372 1.938c-.038.854-.05 1.125-.05 3.29 0 2.167 0 2.444.05 3.292.013.663.138 1.318.372 1.94a4.092 4.092 0 0 0 2.34 2.334 5.86 5.86 0 0 0 1.942.4c.855.037 1.126.049 3.296.049s2.448 0 3.296-.05a5.864 5.864 0 0 0 1.943-.371 4.098 4.098 0 0 0 2.339-2.336 5.835 5.835 0 0 0 .372-1.94c.038-.853.05-1.124.05-3.29-.002-2.167-.002-2.442-.052-3.29Zm-7.954 7.36a4.103 4.103 0 0 1-4.108-4.1c0-2.266 1.839-4.101 4.108-4.101a4.104 4.104 0 0 1 4.107 4.1c0 2.266-1.84 4.101-4.107 4.101Zm4.27-7.397a.956.956 0 1 1 0-1.912.956.956 0 1 1 0 1.912Z"/>
    <path d="M10.495 12.485a2.502 2.502 0 1 0 0-5.005 2.502 2.502 0 0 0 0 5.005Z"/>
  </g>
</svg>
