<svg width="21" height="20" fill="none" xmlns="http://www.w3.org/2000/svg">
  <path fill-rule="evenodd" clip-rule="evenodd" d="M15.65 3.75c-.85-.05-2.6-.1-5.25-.1h-.35c-2.55 0-4.25.05-5.1.15-1.15.1-1.95.4-2.4.8-.4.35-.7 1-.8 1.85-.05.55-.1 1.7-.1 3.45v.25c0 1.65.05 2.8.15 3.35.15.8.4 1.4.9 1.75.5.4 1.35.65 2.55.75.85.05 2.6.1 5.25.1h.35c2.55 0 4.25-.05 5.1-.15 1.15-.1 1.95-.4 2.4-.8.4-.35.7-1 .8-1.85.05-.55.1-1.7.1-3.45V9.6c0-1.65-.05-2.8-.15-3.35-.15-.8-.4-1.4-.9-1.75-.5-.4-1.35-.65-2.55-.75ZM13.7 9.9l-5.5 3.3V6.6l5.5 3.3Z" fill="#0C0C0C" opacity=".8"/>
</svg>
